<svg xmlns="http://www.w3.org/2000/svg" width="106" height="15" viewBox="0 0 106 15" fill="none">
  <path d="M0 14.4308H2.88615V10.5515L4.3059 8.81843L8.04524 14.4308H11.498L6.3722 6.89211L11.438 0.779862H7.97858L3.06612 6.79879H2.88615V0.779862H0V14.4308Z" fill="#FF577F"/>
  <path d="M17.1774 14.6307C19.7103 14.6307 21.4167 13.3976 21.8166 11.498L19.1904 11.3247C18.9038 12.1045 18.1706 12.5111 17.2241 12.5111C15.8043 12.5111 14.9045 11.5713 14.9045 10.0449V10.0382H21.8766V9.25836C21.8766 5.77898 19.7703 4.05928 17.0641 4.05928C14.0513 4.05928 12.0983 6.1989 12.0983 9.35834C12.0983 12.6044 14.0246 14.6307 17.1774 14.6307ZM14.9045 8.27853C14.9645 7.11207 15.851 6.1789 17.1108 6.1789C18.3439 6.1789 19.1971 7.05875 19.2037 8.27853H14.9045Z" fill="#FF577F"/>
  <path d="M26.9445 8.51182C26.9511 7.19206 27.7377 6.41886 28.8841 6.41886C30.0239 6.41886 30.7105 7.16539 30.7038 8.41851V14.4308H33.5433V7.91193C33.5433 5.52569 32.1436 4.05928 30.0106 4.05928C28.4909 4.05928 27.3911 4.80581 26.9312 5.99894H26.8112V4.19259H24.105V14.4308H26.9445V8.51182Z" fill="#FF577F"/>
  <path d="M36.1033 14.4308H44.7085V12.1645H39.8293V12.0912L44.5352 6.03893V4.19259H36.2766V6.45885H41.1158V6.53217L36.1033 12.7377V14.4308Z" fill="#FF577F"/>
  <path d="M47.2551 14.4308H50.0946V4.19259H47.2551V14.4308ZM48.6816 2.87282C49.5281 2.87282 50.2213 2.22627 50.2213 1.43308C50.2213 0.646553 49.5281 0 48.6816 0C47.8417 0 47.1485 0.646553 47.1485 1.43308C47.1485 2.22627 47.8417 2.87282 48.6816 2.87282Z" fill="#FF577F"/>
  <path d="M57.4105 14.6307C59.9434 14.6307 61.6497 13.3976 62.0496 11.498L59.4235 11.3247C59.1368 12.1045 58.4036 12.5111 57.4571 12.5111C56.0374 12.5111 55.1375 11.5713 55.1375 10.0449V10.0382H62.1096V9.25836C62.1096 5.77898 60.0033 4.05928 57.2972 4.05928C54.2844 4.05928 52.3314 6.1989 52.3314 9.35834C52.3314 12.6044 54.2577 14.6307 57.4105 14.6307ZM55.1375 8.27853C55.1975 7.11207 56.084 6.1789 57.3438 6.1789C58.5769 6.1789 59.4301 7.05875 59.4368 8.27853H55.1375Z" fill="#FF577F"/>
  <path d="M69.111 14.4308H71.9971V8.79177H77.8561V14.4308H80.7356V0.779862H77.8561V6.4122H71.9971V0.779862H69.111V14.4308Z" fill="#FF577F"/>
  <path d="M90.0028 10.0715C90.0094 11.4446 89.0696 12.1645 88.0498 12.1645C86.9766 12.1645 86.2834 11.4113 86.2767 10.2049V4.19259H83.4373V10.7114C83.4439 13.1043 84.8437 14.5641 86.9033 14.5641C88.443 14.5641 89.5495 13.7709 90.0094 12.5711H90.1161V14.4308H92.8423V4.19259H90.0028V10.0715Z" fill="#FF577F"/>
  <path d="M95.5422 14.4308H98.3417V12.7911H98.4684C98.8616 13.6442 99.7215 14.5974 101.375 14.5974C103.707 14.5974 105.527 12.7511 105.527 9.32501C105.527 5.80564 103.627 4.05928 101.381 4.05928C99.6682 4.05928 98.8483 5.0791 98.4684 5.91228H98.3817V0.779862H95.5422V14.4308ZM98.3217 9.31168C98.3217 7.48534 99.0949 6.31888 100.475 6.31888C101.881 6.31888 102.628 7.53866 102.628 9.31168C102.628 11.098 101.868 12.3378 100.475 12.3378C99.1083 12.3378 98.3217 11.138 98.3217 9.31168Z" fill="#FF577F"/>
</svg>